<svg xmlns="http://www.w3.org/2000/svg" viewBox="0 0 74.34 83.78"><defs><style>.cls-1{fill:none;stroke:#b2d1ae;stroke-miterlimit:10;stroke-width:10px;}</style></defs><title>Asset 4300x</title><g id="Layer_2" data-name="Layer 2"><g id="Layer_1-2" data-name="Layer 1"><line class="cls-1" x1="46.24" y1="14.44" x2="26.78" y2="14.44"/><path class="cls-1" d="M19.08,14.44H14.46A9.47,9.47,0,0,0,5,23.9V69.32a9.47,9.47,0,0,0,9.46,9.46H59.87a9.47,9.47,0,0,0,9.47-9.46V23.9a9.47,9.47,0,0,0-9.47-9.46H53.94"/><path class="cls-1" d="M26.78,14.44V6.92A1.92,1.92,0,0,0,24.85,5H21a1.92,1.92,0,0,0-1.92,1.92v7.52"/><path class="cls-1" d="M19.08,14.44V22A1.92,1.92,0,0,0,21,23.88h3.85A1.92,1.92,0,0,0,26.78,22V14.44"/><path class="cls-1" d="M53.94,14.44V6.92A1.92,1.92,0,0,0,52,5H48.16a1.92,1.92,0,0,0-1.92,1.92v7.52"/><path class="cls-1" d="M46.24,14.44V22a1.92,1.92,0,0,0,1.92,1.92H52A1.92,1.92,0,0,0,53.94,22V14.44"/></g></g></svg>